<?xml version="1.0" standalone="no"?>
<!DOCTYPE svg PUBLIC "-//W3C//DTD SVG 20010904//EN"
 "http://www.w3.org/TR/2001/REC-SVG-20010904/DTD/svg10.dtd">
<svg version="1.0" xmlns="http://www.w3.org/2000/svg"
 width="970.000000pt" height="970.000000pt" viewBox="0 0 970.000000 970.000000"
 preserveAspectRatio="xMidYMid meet">
<metadata>
Created by potrace 1.11, written by Peter Selinger 2001-2013
</metadata>
<g transform="translate(0.000000,970.000000) scale(0.100000,-0.100000)"
fill="#000000" stroke="none">
<path d="M0 4850 l0 -4850 3749 0 c2990 0 3751 3 3755 13 5 9 7 9 12 0 4 -10
233 -13 1095 -13 l1089 0 0 1328 c-1 1376 0 1362 -39 1362 -14 0 -14 13 1 28
15 15 -7 42 -33 42 -11 0 -19 5 -19 11 0 11 -24 39 -34 39 -3 0 -6 -7 -6 -16
0 -13 -5 -12 -29 6 l-30 20 -6 -44 c-9 -55 -25 -70 -75 -70 -28 0 -37 -3 -33
-13 6 -15 -15 -13 -60 5 -32 14 -62 15 -32 2 14 -6 3 -8 -35 -7 -30 1 -59 7
-63 12 -5 6 -6 1 -3 -10 7 -27 -7 -48 -30 -43 -11 2 -21 15 -24 33 -4 17 -13
40 -21 53 -15 23 -41 30 -37 10 2 -9 -12 -14 -39 -16 -26 -2 -43 1 -43 7 0 6
-5 11 -11 11 -11 0 -7 -64 7 -109 l7 -24 -22 22 c-12 12 -19 26 -16 32 4 5 2
8 -3 7 -5 -2 -27 15 -48 37 -22 22 -55 48 -75 57 -27 13 -38 27 -47 56 -7 22
-26 56 -42 77 l-31 39 32 19 c27 18 36 19 81 9 66 -16 65 -16 72 18 3 19 15
34 32 42 25 12 45 7 141 -29 6 -3 19 9 27 26 10 18 32 37 59 49 23 10 48 26
56 35 7 9 35 23 62 31 45 14 52 13 116 -10 37 -13 84 -24 104 -24 19 0 44 -7
55 -15 10 -8 26 -15 35 -15 8 0 25 -11 37 -25 12 -14 26 -25 32 -25 5 0 10
-13 10 -29 0 -17 5 -33 10 -36 7 -4 10 1120 10 3364 l0 3371 -4850 0 -4850 0
0 -4850z m4540 4200 c0 -5 -2 -10 -4 -10 -3 0 -8 5 -11 10 -3 6 -1 10 4 10 6
0 11 -4 11 -10z m2550 -31 c0 -5 -7 -9 -15 -9 -15 0 -20 12 -9 23 8 8 24 -1
24 -14z m-1160 -248 c0 -27 -19 -36 -37 -18 -18 18 -9 37 18 37 12 0 19 -7 19
-19z m-800 -12 c0 -5 -7 -9 -15 -9 -15 0 -20 12 -9 23 8 8 24 -1 24 -14z
m-350 -9 c0 -5 -7 -10 -16 -10 -8 0 -12 5 -9 10 3 6 10 10 16 10 5 0 9 -4 9
-10z m2260 -460 c0 -5 -4 -10 -10 -10 -5 0 -10 5 -10 10 0 6 5 10 10 10 6 0
10 -4 10 -10z m-1330 -460 c0 -5 -4 -10 -10 -10 -5 0 -10 5 -10 10 0 6 5 10
10 10 6 0 10 -4 10 -10z m-630 -347 c0 -10 -11 -38 -25 -62 -30 -51 -31 -58
-7 -41 9 8 3 0 -14 -17 -17 -17 -44 -38 -60 -46 -16 -8 -47 -34 -69 -58 -22
-23 -33 -39 -25 -34 8 4 -1 -8 -20 -27 -19 -19 -38 -33 -42 -31 -4 2 -10 -1
-13 -7 -16 -26 -133 -69 -214 -79 -47 -6 -86 -9 -89 -7 -6 6 68 26 141 37 75
12 106 27 86 41 -10 7 -7 7 9 3 18 -5 35 6 92 60 97 94 142 197 59 136 -29
-22 -40 -16 -16 8 15 17 5 12 -71 -37 -30 -18 -56 -32 -58 -29 -3 2 16 17 41
31 25 15 45 29 45 31 0 2 -46 -18 -102 -44 -186 -88 -177 -75 47 61 96 59 244
127 278 128 19 0 27 -5 27 -17z m-836 -85 c8 -13 17 -39 21 -58 l6 -35 -19 41
c-22 47 -49 71 -37 34 5 -16 4 -20 -4 -15 -15 9 -90 -30 -114 -58 -10 -12 -15
-15 -11 -7 5 8 -14 -1 -41 -20 -55 -40 -77 -73 -29 -45 29 17 29 17 9 -2 -54
-51 -59 -61 -42 -86 14 -21 27 -25 99 -32 l83 -8 -65 -13 c-102 -21 -139 -26
-115 -15 17 8 15 10 -14 10 -30 1 -32 -1 -20 -15 12 -15 10 -16 -21 -9 -37 8
-179 9 -187 1 -3 -2 -2 -14 2 -25 8 -27 41 -36 68 -18 16 10 29 12 47 5 36
-13 36 -14 -4 -62 -20 -24 -36 -50 -36 -58 0 -10 -2 -10 -9 1 -5 7 -13 11 -19
7 -5 -3 -15 1 -22 9 -18 22 -27 18 -27 -10 0 -14 10 -32 23 -42 23 -17 35 -51
13 -37 -6 3 -15 0 -20 -7 -7 -11 -9 -9 -9 6 0 21 -89 205 -105 218 -6 4 -4 11
5 17 22 15 -48 12 -83 -3 l-28 -12 53 -35 c56 -37 118 -117 118 -153 0 -13
-10 -2 -26 31 -26 53 -64 91 -115 118 -28 14 -39 8 -19 -11 6 -6 -7 -10 -34
-10 -29 0 -51 -6 -65 -19 -25 -23 -28 -11 -4 16 9 10 14 20 11 23 -3 3 -26
-16 -52 -42 -31 -31 -50 -43 -54 -36 -5 8 -22 -1 -50 -28 -47 -46 -52 -55 -19
-38 22 12 22 12 3 -10 l-19 -21 33 11 c18 7 49 29 70 50 33 34 41 37 79 35 50
-4 58 -13 53 -61 -5 -45 -27 -57 -88 -48 l-47 6 22 19 c13 10 18 18 12 18 -37
0 -141 -80 -141 -107 0 -8 -7 -28 -16 -45 -9 -16 -11 -27 -6 -24 6 3 12 -1 15
-9 5 -11 17 -8 66 16 78 39 114 49 146 40 l26 -6 -21 -28 c-43 -55 -35 -137
14 -137 53 0 59 -64 9 -97 -35 -23 -80 -40 -176 -65 -63 -17 -86 -28 -114 -57
l-35 -36 33 -13 c17 -7 47 -15 65 -16 50 -5 64 -21 62 -75 l-1 -46 -4 40 c-3
22 -10 43 -16 47 -7 4 -48 19 -93 33 -110 34 -114 39 -114 161 1 135 14 227
39 272 12 20 31 57 43 82 11 25 29 56 39 69 11 13 19 33 19 45 0 44 98 106
166 106 32 0 73 20 79 39 3 9 16 16 32 17 43 1 155 25 183 39 14 7 31 10 38 8
6 -3 12 0 12 5 0 11 20 21 68 32 47 12 39 -2 -18 -27 -35 -15 -50 -27 -49 -40
1 -14 2 -15 6 -2 2 9 24 20 54 27 62 15 82 15 74 2 -7 -12 5 -12 58 -4 37 7
37 7 22 30 -27 41 -18 62 58 137 77 78 159 137 188 137 10 0 25 -10 33 -22z
m-46 -74 c12 -8 22 -23 22 -32 -1 -15 -2 -15 -11 1 -6 9 -14 15 -19 12 -5 -3
-12 0 -15 5 -4 7 -20 9 -38 5 l-32 -6 25 15 c32 19 41 19 68 0z m772 -38 c0
-2 -17 -16 -37 -31 l-38 -26 35 30 c34 31 40 35 40 27z m-661 -91 c30 -17 20
-19 -26 -6 l-33 10 18 -23 c9 -13 21 -23 27 -21 5 1 7 0 2 -2 -4 -3 -5 -8 -2
-12 2 -5 -19 -6 -47 -3 -37 3 -49 2 -44 -7 5 -7 -2 -11 -20 -11 -25 0 -26 2
-21 37 4 21 15 44 24 51 21 16 81 9 122 -13z m841 5 c0 -5 -2 -10 -4 -10 -3 0
-8 5 -11 10 -3 6 -1 10 4 10 6 0 11 -4 11 -10z m-785 -160 c21 -6 10 -7 -35
-5 -60 4 -62 4 -21 -5 62 -13 67 -25 6 -14 -27 5 -85 8 -127 8 -43 0 -76 2
-73 4 18 19 194 26 250 12z m-821 -69 c16 -18 15 -18 -19 -7 -38 12 -47 26
-17 26 11 0 26 -8 36 -19z m-214 -66 c-7 -9 -15 -13 -19 -10 -3 3 1 10 9 15
21 14 24 12 10 -5z m525 -31 c4 -29 3 -50 -4 -57 -8 -8 -11 -4 -11 15 0 14 -3
40 -6 57 -4 18 -2 31 4 31 5 0 13 -21 17 -46z m801 -209 c-20 -40 -36 -77 -36
-81 0 -14 -84 -115 -104 -126 -16 -8 -13 -2 10 23 34 39 94 121 74 102 -28
-25 -30 -12 -6 31 13 24 35 74 49 112 42 115 42 114 45 61 3 -38 -4 -62 -32
-122z m438 51 c54 -100 76 -154 37 -91 -10 17 -30 39 -45 48 -25 17 -26 17
-26 -5 l0 -23 -21 25 -21 25 6 -35 c3 -19 8 -48 12 -65 l6 -30 -22 32 c-27 41
-30 131 -6 186 9 20 18 37 20 37 3 0 30 -47 60 -104z m-3328 83 c8 -14 -18
-31 -30 -19 -9 9 0 30 14 30 5 0 12 -5 16 -11z m2049 -9 c7 -21 0 -40 -16 -40
-5 0 -9 14 -9 30 0 34 15 40 25 10z m-405 -25 c0 -1 -9 -5 -20 -8 -12 -3 -20
0 -20 8 0 8 8 11 20 8 11 -3 20 -7 20 -8z m172 -43 c-17 -16 -34 -42 -38 -58
l-7 -29 -8 30 c-9 32 8 60 46 76 36 14 38 9 7 -19z m52 -8 c9 -3 16 -10 16
-16 0 -5 -5 -6 -12 -2 -7 5 -26 7 -43 6 -25 -1 -27 0 -10 8 25 11 30 11 49 4z
m4870 -145 c-16 -17 -16 -22 -4 -30 12 -8 10 -10 -8 -6 -26 6 -94 -50 -197
-161 -32 -34 -60 -60 -63 -58 -17 18 96 135 227 233 64 48 72 51 45 22z
m-4699 -18 c7 -12 -24 -43 -36 -36 -13 9 -11 32 4 38 19 8 25 8 32 -2z m745
-15 c0 -2 -8 -10 -17 -17 -16 -13 -17 -12 -4 4 13 16 21 21 21 13z m-2870 -56
c0 -5 -4 -10 -10 -10 -5 0 -10 5 -10 10 0 6 5 10 10 10 6 0 10 -4 10 -10z
m4980 -84 c0 -2 -8 -10 -17 -17 -16 -13 -17 -12 -4 4 13 16 21 21 21 13z
m-2635 -26 c-19 -8 -19 -8 4 -17 l25 -10 -26 -6 c-15 -4 -37 -1 -53 7 l-26 14
28 10 c15 6 37 10 48 11 l20 0 -20 -9z m285 -26 c-80 -46 -140 -75 -140 -67 0
11 151 92 170 93 8 0 -5 -12 -30 -26z m-2550 -34 c0 -5 -4 -10 -10 -10 -5 0
-10 5 -10 10 0 6 5 10 10 10 6 0 10 -4 10 -10z m1780 -28 c0 -11 -9 -27 -20
-37 -22 -20 -26 -14 -9 16 9 19 9 19 -9 10 -32 -17 -75 -75 -132 -177 -31 -57
-50 -103 -47 -114 3 -11 2 -19 -2 -18 -3 1 -22 -14 -43 -35 -40 -41 -34 -45
45 -23 75 21 147 29 147 17 0 -5 -10 -13 -22 -17 l-23 -7 22 -10 c17 -7 30 -5
55 10 37 21 53 59 21 50 -10 -3 -58 -9 -108 -13 -85 -6 -89 -6 -75 11 23 28
153 85 193 85 20 0 39 5 43 11 24 40 161 63 200 34 19 -14 19 -14 -3 -15 -12
0 -25 5 -28 10 -3 6 -18 10 -33 9 -26 0 -26 -1 -4 -9 12 -5 22 -14 22 -21 0
-6 -7 -8 -16 -5 -8 3 -12 2 -9 -4 4 -6 -7 -10 -26 -10 -34 0 -69 -24 -69 -47
0 -20 -20 -16 -21 5 0 11 -2 12 -6 4 -3 -7 0 -19 7 -27 12 -14 -5 -37 -46 -61
-10 -6 -21 -22 -24 -35 -3 -16 -21 -32 -49 -46 -24 -12 -51 -29 -61 -38 -9 -8
-21 -15 -27 -15 -6 0 -17 -8 -24 -17 -11 -14 -11 -15 -1 -9 8 5 24 3 38 -4 18
-10 21 -16 13 -27 -6 -7 -15 -10 -20 -7 -5 3 -6 -2 -3 -10 3 -9 9 -16 14 -16
13 0 40 37 33 45 -5 4 -3 5 4 2 6 -4 32 14 60 41 27 27 58 51 69 54 12 3 -17
-31 -64 -76 -46 -44 -89 -81 -96 -81 -6 0 -19 -10 -29 -22 -10 -12 -24 -20
-32 -16 -10 3 -15 -1 -15 -14 0 -10 -23 -41 -51 -68 -29 -28 -46 -40 -40 -28
10 20 9 22 -6 16 -16 -6 -17 -5 -3 12 14 17 13 17 -10 10 -14 -4 -32 -13 -40
-20 -8 -6 -21 -16 -29 -20 -30 -17 1 15 44 46 24 17 58 50 77 73 l33 41 -35
-25 c-19 -13 -69 -50 -110 -80 -95 -71 -111 -80 -80 -45 l25 28 -25 -13 c-14
-7 -44 -26 -68 -42 -24 -17 -45 -28 -48 -25 -2 2 38 31 89 65 105 68 125 86
106 98 -7 4 -9 3 -6 -3 3 -5 -14 -10 -41 -10 -33 -1 -64 -10 -102 -32 -61 -34
-61 -42 0 -11 22 11 43 20 47 20 16 0 -71 -53 -135 -83 -37 -17 -84 -41 -106
-55 -25 -16 -41 -20 -45 -13 -5 7 -18 8 -41 1 -35 -10 -55 -5 -26 6 14 5 15 9
4 15 -18 12 -71 11 -102 -1 -24 -9 -25 -8 -14 18 18 43 68 82 105 82 20 0 37
7 45 19 7 10 27 25 45 35 39 20 246 185 252 200 2 6 25 32 51 57 37 36 48 55
53 88 6 46 91 191 117 199 9 3 4 -9 -13 -29 -15 -19 -35 -50 -45 -69 -9 -19
-23 -41 -29 -48 -7 -7 -13 -29 -13 -48 0 -31 2 -34 19 -25 10 6 23 28 28 48 7
29 14 37 27 35 15 -3 17 1 13 17 -3 12 -2 21 2 21 5 0 16 37 26 83 l19 82 8
-45 c5 -25 7 -65 4 -90 -3 -39 -3 -42 8 -22 13 25 28 20 19 -6 -3 -10 15 15
39 53 59 96 96 143 127 160 35 19 41 18 41 -3z m3040 -5 c0 -2 -15 -16 -32
-33 l-33 -29 29 33 c28 30 36 37 36 29z m-2636 -19 c-5 -8 2 -9 27 -5 29 6 31
5 14 -5 -11 -7 -33 -13 -48 -14 -27 -2 -28 -1 -11 17 19 21 29 25 18 7z m91 2
c-3 -5 -12 -10 -18 -10 -7 0 -6 4 3 10 19 12 23 12 15 0z m111 -5 c-11 -8 -27
-15 -35 -15 -10 1 -7 6 9 15 33 19 50 18 26 0z m1674 -77 c30 -28 45 -45 33
-39 -27 14 -29 5 -5 -22 9 -11 12 -17 5 -14 -6 4 -20 -4 -32 -19 -11 -14 -25
-23 -31 -19 -5 3 -10 1 -10 -4 0 -6 -9 -11 -19 -11 -11 0 -22 -4 -26 -9 -3 -5
-36 -20 -73 -32 -53 -19 -90 -23 -179 -24 -62 0 -107 -2 -100 -4 18 -6 147
-83 147 -88 0 -2 -4 -2 -8 1 -4 2 -42 7 -83 10 -47 3 -93 13 -121 26 -33 15
-51 18 -69 12 -18 -7 -27 -5 -37 7 -7 9 -11 10 -7 3 5 -10 0 -11 -20 -6 -25 6
-157 -13 -280 -42 -33 -7 -105 -13 -160 -13 -55 0 -128 -3 -163 -6 -53 -6 -61
-4 -56 8 3 9 0 25 -6 37 -9 16 -9 25 -1 33 8 8 11 6 11 -9 1 -30 25 -54 54
-54 22 0 26 5 27 28 0 25 1 26 11 6 9 -19 15 -20 51 -13 50 9 292 74 326 87
l25 9 -25 6 c-13 3 -35 16 -47 28 -24 22 -149 46 -179 34 -14 -5 -14 -7 1 -23
32 -36 21 -45 -48 -40 -78 7 -92 14 -74 36 10 12 10 14 1 8 -8 -4 -13 -2 -13
8 0 11 17 16 68 20 109 10 339 36 449 50 56 8 146 14 200 15 73 1 126 9 208
31 101 26 144 35 185 38 8 1 40 -22 70 -50z m-4166 -11 c10 -4 16 -10 13 -13
-3 -3 3 -29 13 -57 37 -105 62 -304 44 -351 -6 -15 -8 -15 -19 1 -9 12 -10 23
-4 35 21 40 -53 135 -114 145 -47 7 -35 25 18 26 32 1 39 -4 66 -43 l30 -45
-6 50 c-11 84 -35 167 -66 228 -33 65 -36 82 -11 52 9 -12 26 -24 36 -28z
m1831 3 c-3 -5 -16 -15 -28 -21 -19 -9 -19 -8 3 10 28 23 34 26 25 11z m4135
-20 c-8 -5 -19 -10 -25 -10 -5 0 -3 5 5 10 8 5 20 10 25 10 6 0 3 -5 -5 -10z
m-3008 -40 c-2 -16 -8 -33 -14 -36 -5 -3 -6 6 -2 22 4 16 7 34 7 41 0 7 3 10
7 8 4 -2 5 -18 2 -35z m-2732 -85 c-60 -202 -85 -271 -95 -255 -9 14 4 83 17
91 12 8 77 223 79 259 l1 25 9 -25 c7 -18 3 -45 -11 -95z m520 111 c0 -3 -4
-8 -10 -11 -5 -3 -10 -1 -10 4 0 6 5 11 10 11 6 0 10 -2 10 -4z m-481 -46 c0
-10 -3 -8 -9 5 -12 27 -12 43 0 25 5 -8 9 -22 9 -30z m-205 14 c3 -8 2 -12 -4
-9 -6 3 -10 10 -10 16 0 14 7 11 14 -7z m2623 0 c-3 -3 -12 -4 -19 -1 -8 3 -5
6 6 6 11 1 17 -2 13 -5z m-3107 -8 c0 -3 -4 -8 -10 -11 -5 -3 -10 -1 -10 4 0
6 5 11 10 11 6 0 10 -2 10 -4z m3255 -21 c24 -25 35 -52 15 -40 -5 3 -10 0
-11 -7 0 -10 -2 -10 -6 0 -2 6 -12 12 -21 12 -12 0 -14 2 -4 8 9 6 7 14 -8 30
-31 32 2 29 35 -3z m1436 -77 l-10 -33 4 40 c5 56 7 62 12 43 2 -9 0 -31 -6
-50z m-4009 20 c-8 -8 -9 -4 -5 13 4 13 8 18 11 10 2 -7 -1 -18 -6 -23z m1577
28 c-2 -2 -38 -20 -79 -40 -41 -20 -66 -29 -55 -20 31 25 159 83 134 60z m266
-17 c-5 -16 -4 -19 5 -14 9 6 11 4 5 -4 -10 -18 -27 2 -19 22 9 25 17 21 9 -4z
m-2006 -29 c0 -10 -3 -8 -9 5 -12 27 -12 43 0 25 5 -8 9 -22 9 -30z m-354 10
c3 -5 2 -10 -4 -10 -5 0 -13 5 -16 10 -3 6 -2 10 4 10 5 0 13 -4 16 -10z
m4564 -30 c0 -10 -3 -8 -9 5 -12 27 -12 43 0 25 5 -8 9 -22 9 -30z m-4510 19
c17 -6 31 -15 31 -19 0 -11 -58 8 -66 21 -7 12 -4 11 35 -2z m4361 5 c0 -10
-33 -33 -47 -34 -21 0 -15 16 10 28 26 13 37 14 37 6z m-4365 -49 c50 -26 100
-57 113 -71 12 -14 22 -21 22 -17 0 16 90 -90 92 -108 1 -11 2 -27 2 -36 1
-18 49 -55 95 -74 45 -18 16 -18 -79 2 -114 23 -256 24 -324 4 -72 -22 -101
-18 -49 6 72 33 272 51 315 28 30 -16 79 -29 73 -20 -2 5 -18 14 -34 21 -21 8
-28 17 -24 28 4 14 3 14 -5 3 -6 -8 -17 -11 -28 -7 -16 6 -16 8 -4 16 23 15
-30 12 -149 -5 -93 -14 -142 -31 -193 -67 -21 -15 -35 -4 -19 16 32 38 118 60
289 72 45 4 82 11 82 16 0 31 -209 202 -281 231 -11 4 -10 6 1 6 9 1 56 -19
105 -44z m446 18 c-12 -20 -14 -14 -5 12 4 9 9 14 11 11 3 -2 0 -13 -6 -23z
m-365 -18 c16 -12 16 -14 3 -15 -9 0 -22 7 -29 15 -16 19 0 19 26 0z m2801 -7
c46 -17 61 -27 60 -40 -1 -10 -5 -18 -9 -18 -17 0 -77 29 -115 54 -48 33 -23
35 64 4z m1993 13 c0 -17 -114 -164 -118 -152 -3 9 -12 5 -28 -10 -34 -32 -30
-15 4 18 15 16 52 56 81 91 55 63 61 69 61 53z m-472 -87 c15 -19 33 -34 40
-34 6 0 12 -4 12 -10 0 -16 -14 -12 -42 15 -45 42 -118 32 -136 -19 -7 -17
-19 -41 -27 -51 -8 -11 -3 8 10 42 14 35 25 70 25 80 0 9 7 25 16 34 16 18 18
18 46 -2 16 -11 41 -36 56 -55z m1299 45 c-8 -11 -13 -29 -10 -40 3 -10 -1
-27 -8 -36 -13 -17 -13 -17 11 -1 14 9 24 22 22 28 -1 7 3 8 10 4 8 -5 -27
-44 -103 -115 -77 -73 -113 -113 -111 -126 2 -14 1 -15 -7 -4 -7 11 -16 4 -40
-29 -44 -61 -38 -69 15 -20 25 23 48 39 51 36 5 -5 -51 -102 -86 -146 -17 -21
-22 -23 -44 -13 -23 11 -24 15 -17 47 9 41 20 59 120 203 41 59 102 135 135
170 59 62 90 83 62 42z m-5250 -18 c-5 -25 -1 -32 31 -55 21 -14 44 -26 51
-26 7 0 46 -14 88 -31 64 -27 77 -37 89 -66 8 -19 12 -38 9 -43 -6 -10 -36 -2
-32 8 2 9 -26 49 -36 50 -32 5 -57 16 -57 24 0 6 -7 7 -16 4 -8 -3 -13 -2 -10
3 3 5 -2 12 -11 15 -9 4 -19 2 -23 -3 -3 -6 -17 0 -32 14 -15 14 -36 25 -47
25 -22 0 -38 19 -25 29 5 3 9 14 10 24 2 43 4 57 10 57 4 0 4 -13 1 -29z
m4054 2 c-12 -20 -14 -14 -5 12 4 9 9 14 11 11 3 -2 0 -13 -6 -23z m-4323 -20
c20 -20 26 -28 12 -17 -14 10 -27 22 -30 25 -3 3 -14 11 -25 17 -11 6 -14 12
-7 12 7 0 29 -16 50 -37z m4022 -123 c20 -6 21 -8 5 -8 -11 0 -29 3 -40 8 -25
11 1 11 35 0z m2130 -25 c0 -2 -13 -11 -30 -20 -38 -19 -40 -11 -2 9 31 17 32
18 32 11z m-2008 -68 c-23 -24 -42 -48 -42 -54 0 -22 -20 -24 -81 -9 -33 9
-70 16 -81 16 -11 0 -35 9 -53 20 -34 21 -50 21 -96 2 -15 -6 -60 -13 -100
-16 -50 -3 -63 -3 -39 3 54 13 90 29 90 42 0 7 10 9 28 5 21 -5 24 -4 12 5
-28 20 72 0 125 -26 55 -26 117 -45 153 -45 23 0 35 19 47 73 4 21 10 27 23
23 9 -3 24 -1 32 4 31 19 22 -2 -18 -43z m-392 33 c13 -9 13 -10 0 -10 -8 0
-22 5 -30 10 -13 9 -13 10 0 10 8 0 22 -5 30 -10z m-3456 -48 c2 -4 -13 -6
-35 -4 -21 2 -39 6 -39 8 0 7 69 4 74 -4z m-27 -54 c16 -13 31 -27 33 -33 2
-5 13 -26 26 -45 12 -19 29 -60 38 -90 23 -82 57 -401 46 -436 -8 -28 -8 -28
-9 11 -2 68 -41 356 -57 419 -20 77 -27 89 -82 148 -48 51 -46 63 5 26z
m-1299 0 c-6 -18 -28 -21 -28 -4 0 9 7 16 16 16 9 0 14 -5 12 -12z m2812 -78
c-29 -33 -66 -70 -84 -82 -18 -13 3 15 48 65 89 97 118 112 36 17z m3409 18
c-1 -47 -2 -50 -10 -23 -7 26 -3 75 7 75 2 0 4 -24 3 -52z m-3469 12 c-19 -17
-39 -30 -45 -30 -5 1 6 14 25 30 19 17 39 30 45 30 5 -1 -6 -14 -25 -30z
m2340 16 c0 -2 -7 -9 -15 -16 -13 -11 -14 -10 -9 4 5 14 24 23 24 12z m-3472
-86 c0 -8 -6 1 -13 20 -7 19 -13 42 -13 50 0 8 6 -1 13 -20 7 -19 13 -42 13
-50z m1771 -10 c-30 -53 -33 -46 -6 13 12 26 23 43 25 37 2 -5 -7 -28 -19 -50z
m2811 16 c0 -11 -39 -36 -56 -36 -3 0 5 13 18 29 23 28 38 31 38 7z m-5664 -7
c10 -17 -13 -36 -27 -22 -12 12 -4 33 11 33 5 0 12 -5 16 -11z m2594 -34 c0
-8 -4 -15 -10 -15 -5 0 -10 7 -10 15 0 8 5 15 10 15 6 0 10 -7 10 -15z m1939
-109 c33 -18 59 -46 42 -46 -7 0 -9 -5 -5 -12 4 -6 -13 3 -39 22 -25 18 -44
37 -41 41 7 12 10 11 43 -5z m-1845 -53 c-3 -21 -17 -49 -30 -62 l-23 -24 24
49 c14 27 25 55 25 62 0 6 2 12 5 12 3 0 3 -17 -1 -37z m2184 -18 c30 -9 52
-18 50 -20 -2 -2 -26 2 -53 11 -27 8 -98 16 -157 17 -59 2 -111 7 -115 11 -14
15 220 -2 275 -19z m-5378 -20 c0 -8 -4 -15 -10 -15 -5 0 -10 7 -10 15 0 8 5
15 10 15 6 0 10 -7 10 -15z m1936 -21 c-3 -9 4 -16 20 -20 30 -8 84 -57 84
-77 0 -7 19 -23 43 -35 29 -16 34 -21 17 -18 l-26 5 17 -112 c9 -62 25 -132
37 -157 11 -25 23 -56 27 -70 6 -24 6 -24 -19 5 -14 17 -25 37 -26 46 0 31
-26 48 -82 57 -67 10 -67 7 6 -73 25 -27 41 -51 36 -53 -6 -2 -38 10 -72 27
-71 36 -81 38 -74 14 19 -63 16 -75 -7 -28 -17 35 -21 53 -13 58 11 9 9 9 -44
-8 -20 -6 -23 -5 -14 6 6 8 14 24 17 37 4 18 3 21 -8 12 -9 -8 -14 -6 -19 6
-5 14 -9 14 -23 3 -15 -12 -16 -12 -10 4 3 9 2 17 -3 17 -6 0 -5 11 1 28 23
59 20 80 -14 91 -17 6 -38 18 -48 27 -16 14 -19 13 -41 -16 -12 -17 -23 -38
-23 -47 0 -9 -8 -17 -17 -19 -10 -1 -25 -9 -34 -18 -21 -22 -31 -20 -37 6 -4
14 1 32 11 46 37 51 52 89 52 130 l0 44 40 -51 c39 -49 80 -81 80 -63 0 5 -11
35 -25 67 -14 32 -24 59 -23 61 2 1 18 -25 36 -59 49 -96 110 -118 143 -54 7
12 25 38 40 58 l29 37 -24 35 c-33 49 -42 79 -21 71 9 -4 14 -13 11 -20z
m3472 0 c4 -4 -1 -4 -11 -1 -10 4 -32 7 -48 7 -17 0 -28 4 -25 9 6 10 73 -2
84 -15z m-274 -27 c3 -19 0 -27 -10 -27 -8 0 -14 2 -14 4 0 2 -3 12 -7 22 -4
12 -3 15 5 10 8 -4 12 -1 12 10 0 24 8 14 14 -19z m359 26 c-7 -2 -19 -2 -25
0 -7 3 -2 5 12 5 14 0 19 -2 13 -5z m-2552 -153 c18 -36 42 -78 52 -94 l20
-28 -39 26 c-21 14 -56 37 -76 51 -40 27 -58 52 -51 73 4 10 8 10 19 1 11 -9
14 -6 12 17 -1 16 -8 38 -15 49 -7 11 -13 24 -13 30 1 19 58 -60 91 -125z
m162 75 c-3 -9 -8 -14 -10 -11 -3 3 -2 9 2 15 9 16 15 13 8 -4z m-1565 -146
c10 -3 9 -9 -6 -22 -13 -12 -19 -13 -20 -5 0 7 -3 24 -6 38 -4 21 -3 23 7 9 7
-9 18 -18 25 -20z m5912 1 c10 -7 -12 -9 -70 -8 l-85 1 65 7 c36 4 67 7 70 8
3 1 12 -3 20 -8z m347 -6 c-3 -3 -12 -4 -19 -1 -8 3 -5 6 6 6 11 1 17 -2 13
-5z m-667 -30 c-153 -21 -229 -28 -205 -18 24 10 265 42 315 42 36 0 -2 -8
-110 -24z m885 11 c66 -17 38 -17 -50 -1 -46 9 -58 14 -35 14 19 0 58 -6 85
-13z m82 -21 c-3 -3 -12 -4 -19 -1 -8 3 -5 6 6 6 11 1 17 -2 13 -5z m-376 -16
c22 -6 39 -15 39 -21 0 -5 -8 -6 -17 -2 -70 26 -178 30 -220 6 -30 -16 31 -43
130 -55 l92 -12 -190 -2 c-104 -2 -208 -6 -230 -10 l-40 -7 43 -13 c49 -15 49
-23 6 -97 l-23 -40 31 -63 32 -64 14 29 c8 15 21 36 30 46 8 9 20 27 26 40 7
12 20 22 31 22 17 0 21 -8 23 -49 7 -111 -72 -234 -231 -360 -26 -21 -45 -41
-42 -46 3 -4 -3 -14 -13 -21 -15 -13 -16 -12 -3 4 20 26 3 21 -38 -12 -20 -16
-55 -32 -76 -36 -22 -3 -51 -8 -65 -11 -14 -2 2 10 35 27 115 60 193 131 269
243 32 47 34 105 7 167 -24 53 -61 90 -121 118 l-45 21 37 -4 c24 -3 40 0 45
8 5 7 15 16 23 19 9 3 4 6 -12 6 -14 1 -34 4 -44 8 -12 4 -15 3 -10 -5 5 -8 2
-10 -8 -6 -20 8 -20 9 0 28 14 14 12 15 -18 9 -38 -7 -49 -13 -24 -13 28 0 7
-20 -22 -21 -24 0 -25 -1 -7 -9 l20 -9 -20 0 c-11 0 -37 3 -57 8 -35 8 -37 7
-40 -17 -4 -32 -28 -42 -28 -12 0 12 5 31 11 42 15 27 -10 48 -56 48 -17 0
-36 5 -43 12 -6 6 -56 14 -109 18 l-98 6 90 12 c50 7 110 17 135 23 86 18 196
30 339 36 122 5 143 3 139 -9 -8 -19 12 -43 42 -53 20 -6 23 -5 13 6 -23 23
-15 49 20 64 39 17 175 19 228 3z m-6270 -13 c16 9 29 13 29 11 0 -6 -55 -36
-65 -36 -3 0 -4 10 -4 23 1 16 2 18 6 5 4 -16 7 -17 34 -3z m5434 5 c-77 -20
-278 -61 -282 -57 -2 3 46 17 109 31 155 35 150 34 178 34 22 0 22 -1 -5 -8z
m-3796 -54 c12 -14 8 -14 -33 0 -44 15 -53 24 -40 37 8 8 56 -17 73 -37z
m3491 -16 c-8 -5 -19 -10 -25 -10 -5 0 -3 5 5 10 8 5 20 10 25 10 6 0 3 -5 -5
-10z m-3415 -10 c-3 -5 -13 -10 -21 -10 -8 0 -14 5 -14 10 0 6 9 10 21 10 11
0 17 -4 14 -10z m-117 -12 c-2 -7 10 -14 26 -17 26 -5 27 -8 13 -19 -27 -23
-75 16 -50 41 10 10 13 8 11 -5z m-1448 -82 c0 -2 -7 -7 -16 -10 -8 -3 -12 -2
-9 4 6 10 25 14 25 6z m1436 -13 c8 -10 13 -42 13 -73 0 -46 -2 -51 -11 -33
-12 24 -45 37 -52 19 -2 -6 -5 6 -5 27 -2 66 27 97 55 60z m161 11 c-3 -3 -12
-4 -19 -1 -8 3 -5 6 6 6 11 1 17 -2 13 -5z m-1729 -29 c15 -33 16 -31 -8 -31
-15 0 -20 7 -20 28 0 35 13 36 28 3z m1895 -2 c-7 -2 -19 -2 -25 0 -7 3 -2 5
12 5 14 0 19 -2 13 -5z m1577 1 c0 -2 -13 -10 -29 -18 -25 -13 -30 -13 -34 -1
-3 7 -2 15 4 17 14 5 59 6 59 2z m3595 -25 c24 -10 -59 1 -95 12 -15 5 -6 6
25 2 28 -3 59 -9 70 -14z m-6970 -29 c73 -1 50 -14 -43 -25 -56 -6 -61 -9 -45
-21 10 -7 33 -16 52 -20 32 -6 33 -7 13 -18 -23 -12 -18 -28 12 -40 12 -4 22
-2 27 6 4 7 11 9 15 5 4 -4 0 -15 -9 -25 -10 -10 -17 -23 -17 -28 0 -4 14 6
30 24 17 18 30 40 30 48 0 8 5 14 10 14 6 0 8 -11 4 -25 -7 -27 4 -32 37 -15
33 18 22 -7 -17 -37 -41 -32 -66 -74 -55 -91 4 -7 15 -10 23 -7 9 4 19 2 23
-4 4 -8 13 -8 28 0 16 7 13 2 -10 -20 l-32 -30 24 -15 c34 -23 44 -97 19 -145
-10 -20 -20 -40 -23 -45 -2 -5 1 -6 7 -2 6 4 21 -7 33 -24 16 -20 39 -34 75
-45 29 -8 59 -22 68 -30 8 -8 19 -15 25 -15 6 0 11 -7 11 -15 0 -8 10 -17 23
-20 14 -4 28 -19 34 -36 7 -17 21 -33 32 -36 12 -3 21 -9 21 -13 0 -11 61 -72
67 -67 6 7 -22 61 -41 76 -9 7 -13 18 -10 23 4 5 20 -3 38 -19 17 -16 40 -36
51 -44 19 -13 19 -13 5 5 -14 18 -13 19 3 13 19 -7 47 12 47 32 0 6 5 11 10
11 6 0 10 -7 10 -16 0 -23 -20 -107 -30 -125 -6 -12 -1 -22 18 -38 30 -24 52
-27 52 -8 0 15 33 35 68 42 26 5 22 -5 -17 -47 -32 -35 -85 -37 -174 -7 -81
27 -392 184 -439 222 -63 50 -116 142 -127 220 -8 57 -16 75 -45 108 -42 46
-45 76 -16 159 11 32 15 61 10 70 -11 22 -22 128 -15 141 4 6 17 8 29 5 11 -3
48 -6 81 -6z m3279 -22 c-19 -21 -19 -21 1 -15 13 5 9 -3 -15 -25 -19 -18 -34
-36 -32 -40 1 -4 -2 -8 -6 -8 -11 0 -30 -40 -52 -108 l-17 -54 -17 27 c-11 16
-18 49 -19 89 -1 35 -5 62 -9 59 -5 -2 -8 1 -8 7 0 6 6 10 13 9 28 -5 112 28
136 52 32 32 52 38 25 7z m-1137 -48 c65 -33 141 -78 168 -100 28 -22 78 -58
113 -81 34 -22 62 -43 62 -45 0 -3 -5 -2 -12 2 -7 4 -8 3 -4 -4 4 -6 12 -9 19
-6 18 6 93 -46 152 -105 57 -59 48 -70 -11 -13 -22 21 -46 36 -53 34 -9 -3
-11 0 -6 8 5 8 3 11 -6 8 -8 -3 -13 -10 -12 -16 1 -5 -6 -8 -17 -5 -11 3 -17
9 -14 14 3 5 2 9 -3 8 -15 -4 -73 27 -66 35 4 4 0 4 -9 1 -9 -4 -18 0 -21 9
-3 8 -16 20 -29 27 -18 9 -15 3 12 -25 19 -20 46 -56 60 -81 14 -24 38 -64 53
-90 16 -25 29 -54 30 -65 1 -10 5 -16 10 -13 11 7 61 -33 158 -126 46 -44 85
-80 88 -79 19 2 31 -3 31 -13 0 -8 -5 -8 -15 1 -20 17 -19 1 2 -22 18 -20 33
-24 33 -7 0 5 -5 7 -11 3 -7 -4 -9 0 -5 12 4 13 -8 34 -39 67 -25 27 -45 46
-45 42 0 -3 -15 10 -34 29 -19 19 -37 31 -40 28 -3 -3 -6 2 -6 12 0 9 -7 19
-15 22 -8 3 -17 14 -20 25 -4 11 -10 17 -15 14 -5 -3 -11 4 -15 15 -3 11 -10
20 -13 20 -4 0 -15 15 -25 33 -10 18 -31 41 -47 52 -16 10 -26 23 -24 27 3 4
0 8 -5 8 -6 0 -11 4 -11 9 0 13 79 -22 165 -75 67 -41 119 -92 186 -184 40
-55 44 -64 28 -58 -11 4 -10 -4 5 -37 11 -24 23 -42 27 -40 3 2 13 -11 22 -30
9 -19 12 -37 7 -40 -12 -8 -50 26 -51 45 0 9 -4 6 -9 -8 -7 -16 -5 -28 8 -43
51 -62 49 -60 56 -44 10 27 24 16 40 -32 18 -51 22 -106 6 -68 -6 14 -9 16 -9
4 -1 -8 6 -24 15 -35 8 -10 12 -13 8 -5 -4 9 -3 12 4 7 6 -4 8 -14 5 -23 -4
-11 -3 -14 5 -9 8 5 10 1 5 -10 -4 -11 -2 -15 4 -11 6 4 11 1 10 -6 0 -6 1
-21 2 -32 1 -17 3 -18 11 -5 8 11 9 7 4 -14 -5 -19 -3 -27 3 -23 6 4 11 1 10
-6 0 -6 1 -25 2 -42 2 -24 4 -26 10 -11 5 14 13 1 30 -54 13 -40 25 -91 28
-114 5 -44 2 -43 -37 13 -8 12 -20 21 -28 21 -7 0 -10 5 -7 10 4 6 -6 10 -22
9 -15 0 -22 -3 -15 -6 6 -2 12 -9 12 -15 0 -6 -6 -5 -15 2 -12 10 -13 16 -4
26 13 16 -2 19 -17 4 -6 -6 -29 2 -68 26 -44 28 -55 39 -44 46 10 7 8 8 -5 4
-21 -7 -134 78 -188 142 -35 41 -119 184 -119 202 0 6 5 10 11 10 5 0 7 5 3
12 -4 7 -3 8 5 4 9 -6 9 -11 1 -21 -9 -11 -6 -21 11 -44 13 -17 23 -31 23 -31
1 0 2 12 3 27 0 15 -2 21 -7 14 -5 -10 -8 -9 -13 2 -3 7 -1 20 3 27 10 17 -60
132 -77 126 -7 -3 -10 1 -7 8 3 8 -2 30 -10 51 -9 21 -16 39 -16 40 0 2 16
-12 35 -30 34 -34 35 -34 71 -19 20 8 33 11 30 6 -6 -9 22 -35 45 -40 14 -4
29 -21 29 -35 0 -5 -5 -5 -12 -1 -7 4 -8 3 -4 -5 4 -6 12 -9 17 -5 6 3 20 -2
32 -13 l22 -18 -20 24 c-11 14 -34 41 -51 60 -93 105 -105 121 -99 131 3 6 12
7 18 3 7 -4 6 0 -2 10 -7 9 -17 14 -22 11 -10 -6 -62 26 -55 34 7 6 -186 198
-244 243 -88 69 -201 140 -332 209 -189 98 -186 96 -97 103 94 8 141 -1 215
-43 32 -18 88 -49 124 -68 36 -19 72 -41 82 -49 9 -9 18 -10 22 -5 7 12 -29
34 -184 115 -131 68 -129 67 -107 67 9 0 69 -27 134 -60z m4026 43 c-7 -2 -21
-2 -30 0 -10 3 -4 5 12 5 17 0 24 -2 18 -5z m-4750 -80 c21 -17 26 -63 7 -63
-5 0 -14 -2 -22 -5 -7 -3 -29 9 -48 26 -33 30 -34 31 -15 45 25 19 52 18 78
-3z m2094 -16 c-8 -13 -18 -39 -21 -57 -2 -18 -12 -40 -20 -49 -15 -14 -16
-13 -17 9 -2 43 2 54 34 88 36 38 45 41 24 9z m2063 -8 c0 -5 -4 -9 -10 -9 -5
0 -10 7 -10 16 0 8 5 12 10 9 6 -3 10 -10 10 -16z m-4212 -46 c2 -7 -4 -13
-13 -13 -9 0 -27 -12 -41 -27 -13 -14 -27 -23 -31 -19 -4 3 -1 12 5 18 7 7 12
23 12 36 0 20 4 23 32 20 17 -2 33 -9 36 -15z m469 -93 c18 -17 54 -42 80 -56
26 -14 38 -22 25 -19 -32 9 -172 75 -172 81 0 3 5 2 10 -1 6 -3 15 -3 21 1 8
4 7 9 -2 15 -8 5 -9 9 -4 9 6 0 24 -14 42 -30z m-988 -121 c-15 -28 -11 -38
14 -31 21 5 21 5 -5 -31 -33 -43 -34 -47 -8 -40 25 7 78 -6 64 -15 -6 -4 -14
-19 -18 -34 -3 -16 -13 -28 -22 -28 -9 0 -18 -9 -21 -20 -8 -29 -32 -25 -44 7
-11 29 -9 224 2 217 4 -2 7 2 6 9 0 6 1 23 2 37 2 23 4 21 21 -15 13 -27 16
-45 9 -56z m1306 -30 c5 -5 -14 -2 -43 6 -59 18 -142 52 -142 59 0 6 173 -55
185 -65z m3147 -46 l-23 -16 38 -15 c21 -7 50 -16 66 -19 33 -6 34 -16 2 -51
-18 -19 -25 -22 -25 -11 0 16 -2 17 -60 23 -19 2 -47 7 -63 11 -23 6 -32 2
-64 -31 -32 -34 -34 -35 -18 -9 28 46 56 75 104 106 47 30 83 40 43 12z
m-2921 -48 c30 -14 43 -22 30 -19 -35 9 -91 33 -91 39 0 8 4 6 61 -20z m-2027
-26 c14 -17 26 -35 26 -40 0 -6 9 -29 20 -51 25 -52 25 -63 1 -39 -27 27 -43
59 -36 71 3 5 -4 20 -15 32 -12 13 -26 31 -31 41 -16 28 7 20 35 -14z m1610
-21 c14 -17 26 -36 26 -42 0 -21 -31 -43 -54 -39 -22 4 -25 11 -28 59 -4 65
14 72 56 22z m3473 4 c-20 -21 -22 -43 -6 -59 8 -8 8 -16 0 -30 -7 -12 -10
-14 -11 -4 0 8 -7 22 -15 30 -12 15 -11 20 11 49 14 17 28 32 31 32 3 0 -1 -8
-10 -18z m-2942 -10 c-3 -3 -11 0 -18 7 -9 10 -8 11 6 5 10 -3 15 -9 12 -12z
m-337 -57 c-3 -3 -9 2 -12 12 -6 14 -5 15 5 6 7 -7 10 -15 7 -18z m3759 10
c28 -8 56 -22 63 -30 13 -16 1 -21 -15 -6 -34 30 -201 40 -280 16 -86 -25 -63
-3 25 25 42 14 153 11 207 -5z m-5047 -46 c0 -6 -4 -7 -10 -4 -5 3 -10 11 -10
16 0 6 5 7 10 4 6 -3 10 -11 10 -16z m1044 -28 c-5 -6 -33 31 -33 44 -1 6 8
-1 19 -15 10 -14 17 -27 14 -29z m270 23 c5 -14 4 -15 -9 -4 -17 14 -19 20 -6
20 5 0 12 -7 15 -16z m3356 -4 c14 -11 21 -20 17 -20 -11 0 -67 29 -67 35 0
11 27 3 50 -15z m-4603 -16 c-3 -3 -12 -4 -19 -1 -8 3 -5 6 6 6 11 1 17 -2 13
-5z m932 -10 c-10 -13 -10 -17 2 -25 9 -6 10 -9 2 -9 -7 0 -17 10 -24 21 -7
13 -7 19 -1 15 6 -3 13 -2 17 4 3 5 9 10 12 10 3 0 0 -7 -8 -16z m323 -19 c-2
-14 0 -25 6 -25 9 0 25 -36 23 -52 -1 -5 3 -8 8 -8 5 0 11 -8 13 -17 4 -15 17
-18 76 -18 51 0 68 -3 61 -11 -6 -8 -3 -13 10 -17 10 -2 30 -28 44 -56 41 -81
79 -144 100 -168 11 -13 17 -26 14 -30 -4 -3 -7 -1 -7 5 0 6 -14 13 -30 17
-17 4 -36 12 -43 18 -20 20 -96 67 -122 77 -35 13 -31 -3 10 -39 52 -45 43
-48 -12 -5 -76 61 -122 114 -154 180 -33 70 -39 99 -8 40 15 -27 24 -35 31
-28 8 8 5 25 -9 59 -30 71 -36 103 -20 103 10 0 13 -8 9 -25z m-3248 -16 c-8
-14 -34 -11 -34 4 0 8 3 17 7 20 9 9 34 -13 27 -24z m3526 -14 c0 -5 -5 -3
-10 5 -5 8 -10 20 -10 25 0 6 5 3 10 -5 5 -8 10 -19 10 -25z m-1670 -45 c-6
-23 -14 -40 -17 -37 -3 3 1 30 8 59 8 29 15 45 17 36 2 -9 -2 -35 -8 -58z
m5119 46 c-21 -18 -93 -56 -116 -61 -17 -4 -5 6 32 25 33 18 64 36 69 41 5 5
12 6 15 4 2 -3 2 -7 0 -9z m-324 -65 c-3 -3 -18 8 -33 23 l-27 29 32 -23 c18
-13 30 -26 28 -29z m152 -7 c-3 -3 -12 -4 -19 -1 -8 3 -5 6 6 6 11 1 17 -2 13
-5z m-47 -14 c0 -5 -7 -7 -15 -4 -8 4 -15 8 -15 10 0 2 7 4 15 4 8 0 15 -4 15
-10z m-1088 -15 c0 -5 -5 -11 -11 -13 -6 -2 -11 4 -11 13 0 9 5 15 11 13 6 -2
11 -8 11 -13z m-3925 -1 c-3 -3 -12 -4 -19 -1 -8 3 -5 6 6 6 11 1 17 -2 13 -5z
m1853 -14 c6 -11 8 -20 6 -20 -3 0 -10 9 -16 20 -6 11 -8 20 -6 20 3 0 10 -9
16 -20z m40 -2 c0 -6 -6 -5 -15 2 -8 7 -15 14 -15 16 0 2 7 1 15 -2 8 -4 15
-11 15 -16z m639 -4 c28 -14 51 -29 51 -34 0 -10 -52 11 -105 42 -47 28 -4 22
54 -8z m-269 -14 c0 -5 -5 -10 -11 -10 -5 0 -7 5 -4 10 3 6 8 10 11 10 2 0 4
-4 4 -10z m380 -49 c22 -9 41 -25 51 -46 14 -30 14 -33 0 -28 -14 4 -14 4 -1
-6 8 -6 23 -11 33 -11 10 0 16 -4 13 -9 -9 -15 -154 -19 -214 -6 l-57 13 60 1
c33 1 70 4 83 7 26 7 29 29 5 42 -10 6 -14 16 -10 26 4 9 2 16 -3 16 -6 0 -10
5 -10 11 0 6 3 9 8 7 4 -2 23 -9 42 -17z m3695 -81 c3 -5 1 -10 -4 -10 -6 0
-11 5 -11 10 0 6 2 10 4 10 3 0 8 -4 11 -10z m-3882 -7 c-7 -2 -21 -2 -30 0
-10 3 -4 5 12 5 17 0 24 -2 18 -5z m1220 -10 c-7 -2 -19 -2 -25 0 -7 3 -2 5
12 5 14 0 19 -2 13 -5z m-105 -10 c-10 -2 -28 -2 -40 0 -13 2 -5 4 17 4 22 1
32 -1 23 -4z m-1818 -69 c0 -2 -9 0 -20 6 -11 6 -20 13 -20 16 0 2 9 0 20 -6
11 -6 20 -13 20 -16z m-1280 -75 c0 -11 -4 -17 -10 -14 -5 3 -10 13 -10 21 0
8 5 14 10 14 6 0 10 -9 10 -21z m-280 -39 c0 -5 7 -7 15 -4 12 5 14 0 10 -22
-6 -30 0 -42 48 -111 15 -22 30 -55 33 -74 5 -31 1 -37 -45 -73 -28 -22 -55
-52 -61 -66 -13 -30 -11 -122 2 -114 5 3 6 9 3 14 -3 5 -1 11 4 14 5 4 8 -1 7
-9 -2 -15 -96 -129 -101 -123 -6 7 35 266 50 318 13 42 15 80 11 158 -4 85 -2
102 10 102 8 0 14 -4 14 -10z m2180 -175 c11 -13 10 -14 -4 -9 -9 3 -16 10
-16 15 0 13 6 11 20 -6z m-1993 -247 c-2 -18 -4 -6 -4 27 0 33 2 48 4 33 2
-15 2 -42 0 -60z m4 -78 c5 0 9 -13 9 -30 0 -30 14 -41 23 -17 2 6 8 -6 12
-28 11 -53 -9 -166 -40 -230 l-25 -50 4 71 c2 39 -1 79 -6 87 -4 9 -5 67 -1
129 4 62 9 103 11 91 2 -13 8 -23 13 -23z m5394 15 c27 -6 35 -35 9 -35 -10 0
-14 -6 -11 -14 4 -10 1 -13 -7 -10 -9 4 -15 -6 -19 -28 -4 -24 1 -42 19 -69
25 -36 31 -54 15 -45 -5 3 -12 -1 -15 -10 -3 -8 -10 -13 -15 -9 -10 5 -34 -29
-26 -36 2 -3 -15 -3 -38 -2 -33 2 -36 1 -17 -5 23 -8 22 -9 -15 -15 -22 -4
-53 -18 -69 -32 -17 -14 -37 -23 -46 -20 -18 6 -100 -67 -100 -90 0 -7 -5 -15
-10 -17 -13 -4 -15 -34 -5 -65 5 -15 3 -23 -4 -23 -6 0 -11 -6 -11 -14 0 -8
-6 -16 -14 -19 -18 -7 -26 -79 -16 -147 4 -30 3 -56 -1 -58 -5 -2 -9 -13 -9
-23 0 -34 -18 -56 -50 -62 -17 -4 -29 -12 -28 -19 2 -7 -3 -12 -9 -11 -16 4
-16 0 -1 -32 7 -15 32 -35 66 -51 57 -27 102 -34 140 -21 31 11 29 -11 -2 -23
-14 -5 -47 -7 -75 -5 -28 3 -53 0 -56 -5 -9 -14 -103 -3 -144 18 -27 13 -46
36 -80 96 -38 68 -44 88 -44 136 0 66 11 89 73 150 44 43 47 50 41 81 -8 36
12 118 42 175 24 46 165 171 215 190 44 17 45 20 42 69 -2 43 27 71 90 89 86
24 114 26 185 11z m88 -301 c33 -24 55 -51 69 -82 27 -60 57 -92 87 -92 13 0
42 -9 65 -20 23 -10 75 -33 116 -51 41 -17 80 -36 86 -41 15 -12 5 -51 -11
-44 -7 2 -15 -5 -18 -16 -3 -11 -10 -17 -16 -13 -10 6 -21 0 -61 -36 -10 -9
-26 -22 -36 -28 -11 -6 -14 -11 -8 -11 18 0 9 -40 -17 -71 -16 -20 -29 -27
-42 -23 -11 3 -37 -2 -58 -11 -32 -15 -41 -16 -54 -5 -11 9 -13 16 -5 24 19
19 10 26 -31 26 -35 0 -40 2 -30 14 17 20 -16 26 -49 9 -40 -21 -93 -16 -118
10 -11 12 -44 31 -71 42 -44 17 -52 24 -57 52 -3 18 -4 42 -1 52 3 12 -1 22
-9 25 -10 4 -14 26 -14 86 0 71 3 84 23 103 12 12 31 41 42 64 12 26 27 43 38
43 9 0 17 5 17 11 0 7 10 9 25 7 14 -3 28 -1 31 3 12 19 62 7 107 -27z m-5448
-106 c-4 -35 -9 -70 -11 -78 -13 -35 -34 -274 -34 -374 0 -60 -3 -107 -6 -104
-7 8 -21 537 -14 541 3 1 19 19 34 40 16 20 30 37 32 37 3 0 2 -28 -1 -62z
m1009 3 c11 -12 14 -25 9 -40 l-8 -21 -38 26 c-31 21 -36 28 -26 40 16 19 43
18 63 -5z m5076 -16 c0 -8 -4 -15 -10 -15 -5 0 -7 7 -4 15 4 8 8 15 10 15 2 0
4 -7 4 -15z m-4967 -145 c3 -11 1 -18 -4 -14 -5 3 -9 12 -9 20 0 20 7 17 13
-6z m1577 -40 c0 -5 -5 -10 -11 -10 -5 0 -7 5 -4 10 3 6 8 10 11 10 2 0 4 -4
4 -10z m2384 -87 c4 -4 15 -8 24 -8 11 0 16 -7 15 -20 -1 -11 4 -23 10 -27 9
-6 9 -10 -2 -17 -9 -6 -10 -11 -2 -15 6 -4 9 -12 6 -17 -4 -5 -1 -9 5 -9 6 0
8 -4 5 -10 -10 -16 -57 -12 -77 7 -18 16 -23 58 -12 101 7 23 15 27 28 15z
m166 -172 c0 -6 16 -7 36 -4 27 4 40 2 48 -9 6 -8 25 -20 41 -26 19 -6 23 -11
12 -11 -10 -1 -15 -6 -12 -12 4 -6 13 -8 20 -6 6 3 20 -4 30 -15 14 -17 15
-22 4 -29 -8 -5 -19 -7 -25 -5 -6 2 -26 -9 -45 -25 -39 -34 -71 -38 -155 -24
-17 3 -45 18 -62 34 -26 22 -32 36 -32 67 0 56 10 67 53 59 20 -4 43 -2 54 4
23 13 33 14 33 2z m-145 -281 c3 -5 -1 -10 -10 -10 -9 0 -13 5 -10 10 3 6 8
10 10 10 2 0 7 -4 10 -10z m-2457 -1013 c2 -10 -3 -17 -12 -17 -10 0 -16 9
-16 21 0 24 23 21 28 -4z m1492 -211 c0 -3 -4 -8 -10 -11 -5 -3 -10 -1 -10 4
0 6 5 11 10 11 6 0 10 -2 10 -4z m480 -46 c0 -5 -2 -10 -4 -10 -3 0 -8 5 -11
10 -3 6 -1 10 4 10 6 0 11 -4 11 -10z m-430 -60 c0 -5 -4 -10 -9 -10 -6 0 -13
5 -16 10 -3 6 1 10 9 10 9 0 16 -4 16 -10z m350 -50 c0 -5 -2 -10 -4 -10 -3 0
-8 5 -11 10 -3 6 -1 10 4 10 6 0 11 -4 11 -10z m310 -80 c0 -5 -4 -10 -10 -10
-5 0 -10 5 -10 10 0 6 5 10 10 10 6 0 10 -4 10 -10z m-1482 -122 c-6 -18 -28
-21 -28 -4 0 9 7 16 16 16 9 0 14 -5 12 -12z m717 2 c3 -5 1 -10 -4 -10 -6 0
-11 5 -11 10 0 6 2 10 4 10 3 0 8 -4 11 -10z m1165 -70 c0 -5 -4 -10 -10 -10
-5 0 -10 5 -10 10 0 6 5 10 10 10 6 0 10 -4 10 -10z m-772 -122 c-3 -7 -11
-13 -18 -13 -7 0 -15 6 -17 13 -3 7 4 12 17 12 13 0 20 -5 18 -12z"/>
<path d="M3741 6991 c-14 -9 -7 -31 10 -31 6 0 8 4 4 9 -3 6 3 14 12 20 14 8
15 10 3 11 -8 0 -21 -4 -29 -9z"/>
<path d="M3225 6640 c4 -11 2 -20 -4 -20 -6 0 -11 -6 -11 -12 1 -14 40 29 40
43 0 5 -7 9 -16 9 -11 0 -14 -6 -9 -20z"/>
<path d="M3160 6621 c0 -5 6 -14 14 -20 16 -13 32 2 21 19 -8 12 -35 13 -35 1z"/>
<path d="M3138 6593 c7 -3 16 -2 19 1 4 3 -2 6 -13 5 -11 0 -14 -3 -6 -6z"/>
<path d="M3160 6547 c0 -8 -7 -17 -15 -21 -8 -3 -15 -10 -15 -16 0 -7 6 -8 19
0 11 5 41 10 68 10 62 0 88 15 42 24 -90 18 -99 19 -99 3z"/>
<path d="M3208 6503 c7 -3 16 -2 19 1 4 3 -2 6 -13 5 -11 0 -14 -3 -6 -6z"/>
<path d="M3473 5980 c-13 -5 -23 -12 -23 -15 0 -9 16 -5 36 10 22 16 19 18
-13 5z"/>
<path d="M3516 5983 c5 -5 12 -12 16 -18 4 -6 8 -2 8 8 0 9 -7 17 -17 17 -9 0
-12 -3 -7 -7z"/>
<path d="M3234 5950 c-26 -10 -38 -26 -26 -34 5 -3 20 6 32 19 26 27 25 28 -6
15z"/>
<path d="M3407 5857 c-4 -10 -22 -13 -64 -11 l-58 4 49 -14 c47 -14 50 -14 85
10 30 20 32 24 14 24 -11 0 -23 -6 -26 -13z"/>
<path d="M3320 5810 c-8 -5 -10 -10 -5 -10 6 0 17 5 25 10 8 5 11 10 5 10 -5
0 -17 -5 -25 -10z"/>
<path d="M3215 5781 c-38 -4 -84 -14 -101 -23 -47 -26 -132 -118 -108 -118 17
0 97 54 86 58 -20 6 6 42 43 58 54 22 58 17 18 -22 -42 -39 -35 -38 70 9 37
16 67 34 67 38 0 5 -1 8 -2 7 -2 -1 -34 -4 -73 -7z"/>
<path d="M3361 5663 c-15 -34 -10 -37 12 -8 9 13 13 26 8 29 -4 3 -13 -6 -20
-21z"/>
<path d="M3293 5596 c-26 -27 -31 -45 -7 -26 14 12 39 50 32 50 -2 0 -13 -11
-25 -24z"/>
<path d="M5098 5963 c6 -2 18 -2 25 0 6 3 1 5 -13 5 -14 0 -19 -2 -12 -5z"/>
<path d="M5750 5889 c0 -5 5 -7 10 -4 6 3 10 8 10 11 0 2 -4 4 -10 4 -5 0 -10
-5 -10 -11z"/>
<path d="M7064 5798 c-41 -30 -52 -42 -29 -30 26 15 72 51 64 52 -4 0 -19 -10
-35 -22z"/>
<path d="M2660 4890 c18 -12 50 -13 50 -2 0 4 -15 8 -33 9 -23 2 -28 0 -17 -7z"/>
<path d="M2555 4830 c-9 -14 18 -44 35 -38 7 2 4 11 -8 26 -14 16 -22 19 -27
12z"/>
<path d="M8093 4576 c-11 -36 -11 -38 3 -24 9 8 14 26 12 39 -2 20 -5 18 -15
-15z"/>
<path d="M2249 4319 c-7 -14 -7 -25 -1 -31 6 -6 11 1 14 21 5 36 3 38 -13 10z"/>
<path d="M4190 4546 c0 -3 9 -10 20 -16 11 -6 20 -8 20 -6 0 3 -9 10 -20 16
-11 6 -20 8 -20 6z"/>
<path d="M4715 4320 c-3 -6 1 -7 9 -4 18 7 21 14 7 14 -6 0 -13 -4 -16 -10z"/>
<path d="M4661 4202 c-1 -7 6 -15 14 -18 8 -4 15 -12 15 -19 0 -6 10 -20 21
-31 21 -18 21 -17 -2 23 -13 23 -27 39 -30 37 -4 -2 -10 2 -12 8 -4 10 -6 10
-6 0z"/>
<path d="M4760 4070 c0 -5 5 -10 11 -10 5 0 7 5 4 10 -3 6 -8 10 -11 10 -2 0
-4 -4 -4 -10z"/>
<path d="M5084 3439 c-4 -7 1 -18 10 -25 12 -8 13 -13 5 -16 -18 -6 -1 -28 20
-28 10 0 24 -7 31 -15 15 -18 30 -19 30 -2 0 13 -40 43 -52 39 -11 -3 -5 21 7
31 6 4 -3 5 -20 1 -20 -4 -26 -3 -16 4 8 6 9 12 3 16 -6 3 -14 1 -18 -5z"/>
<path d="M5166 3395 c4 -8 11 -15 16 -15 6 0 5 6 -2 15 -7 8 -14 15 -16 15 -2
0 -1 -7 2 -15z"/>
<path d="M5220 3340 c0 -5 5 -10 11 -10 5 0 7 5 4 10 -3 6 -8 10 -11 10 -2 0
-4 -4 -4 -10z"/>
<path d="M9150 2359 c0 -5 5 -7 10 -4 6 3 10 8 10 11 0 2 -4 4 -10 4 -5 0 -10
-5 -10 -11z"/>
<path d="M8680 2010 c0 -5 5 -10 10 -10 6 0 10 5 10 10 0 6 -4 10 -10 10 -5 0
-10 -4 -10 -10z"/>
<path d="M9530 2843 c0 -5 4 -15 10 -23 11 -18 25 -7 17 15 -6 15 -27 21 -27
8z"/>
</g>
</svg>
